<svg xmlns="http://www.w3.org/2000/svg" width="87" height="87" viewBox="0 0 87 87">
    <path fill="#59C587" fill-rule="nonzero" d="M43.5 0A43.375 43.375 0 0 0 0 43.5 43.375 43.375 0 0 0 43.5 87 43.375 43.375 0 0 0 87 43.5 43.375 43.375 0 0 0 43.5 0zm25.111 29.857L36.975 62.68c-.395.395-.79.593-1.384.593-.593 0-1.186-.198-1.384-.593L18.784 46.07l-.395-.395c-.396-.395-.594-.989-.594-1.384 0-.396.198-.989.594-1.384l2.768-2.768c.79-.791 1.977-.791 2.768 0l.198.197 10.875 11.666a.956.956 0 0 0 1.384 0l26.495-27.484h.198c.79-.79 1.977-.79 2.768 0l2.768 2.768c.791.594.791 1.78 0 2.57z"/>
</svg>
