<svg xmlns="http://www.w3.org/2000/svg" width="19" height="19" viewBox="0 0 19 19">
    <path fill="#59C587" fill-rule="evenodd" d="M9.5 19C4.254 19 0 14.747 0 9.5A9.5 9.5 0 0 1 9.5 0C14.748 0 19 4.253 19 9.5A9.5 9.5 0 0 1 9.5 19zM7.38 3.222l-.49 1.882-.51-1.882h-.755c.152.444.31.89.461 1.336.23.669.373 1.173.44 1.516v1.942h.717V6.074l.863-2.852H7.38zm2.645 2.386c0-.381-.066-.661-.202-.841-.178-.245-.43-.367-.754-.367-.323 0-.576.122-.755.367-.138.18-.202.46-.202.84V6.86c0 .38.064.661.202.84.18.244.432.366.755.366s.576-.122.754-.366c.136-.179.202-.46.202-.84V5.608zm2.393-1.164h-.647v2.73c-.143.202-.28.303-.41.303-.086 0-.137-.051-.151-.152-.008-.02-.008-.1-.008-.251v-2.63h-.645v2.824c0 .252.022.423.057.532.065.18.209.265.418.265.236 0 .48-.143.739-.439v.39h.647V4.444zm2.199 5.135a1.341 1.341 0 0 0-1.147-1.042c-1.314-.146-2.644-.147-3.969-.146-1.324-.001-2.654 0-3.969.146a1.338 1.338 0 0 0-1.144 1.042c-.185.803-.187 1.68-.187 2.506 0 .826 0 1.703.184 2.505.13.564.59.979 1.146 1.042 1.314.146 2.644.147 3.969.146 1.325 0 2.654 0 3.969-.146a1.34 1.34 0 0 0 1.145-1.042c.185-.802.185-1.68.185-2.505 0-.827.002-1.703-.182-2.506zm-.77 4.364c-.178.257-.44.384-.775.384s-.59-.12-.776-.363c-.135-.176-.204-.455-.204-.83v-1.24c0-.377.061-.653.197-.832.185-.242.44-.363.767-.363.322 0 .577.12.755.363.135.18.198.455.198.833v.732h-1.28v.627c0 .327.107.49.327.49.158 0 .25-.085.286-.256.006-.035.014-.178.014-.434h.653v.093c0 .207-.007.348-.013.413a.914.914 0 0 1-.15.383zm-1.118-1.85h.641v-.326c0-.327-.108-.49-.32-.49-.214 0-.32.163-.32.49v.327zm-1.713 2.234c-.228 0-.448-.127-.662-.392v.343h-.64V9.534h.64v1.549c.206-.255.427-.384.662-.384.254 0 .426.135.512.4.043.142.064.376.064.71v1.408c0 .327-.021.562-.064.712-.086.263-.258.398-.512.398zm-.064-2.568c0-.32-.094-.483-.278-.483-.106 0-.213.05-.32.156v2.154c.107.108.214.158.32.158.184 0 .278-.158.278-.476v-1.51zm-2.434 2.133c-.254.292-.496.435-.731.435-.207 0-.349-.085-.413-.263-.036-.107-.057-.276-.057-.526v-2.795h.64v2.602c0 .15 0 .228.006.249.016.1.065.15.15.15.129 0 .263-.099.405-.3v-2.7h.642v3.534h-.642v-.386zm-2.061.386h-.713v-4.077h-.753v-.667h2.233v.667h-.767v4.077zm2.612-6.801c-.21 0-.31-.165-.31-.497V5.478c0-.33.1-.495.31-.495.208 0 .308.165.308.495V6.98c0 .332-.1.497-.308.497z"/>
</svg>
