<svg xmlns="http://www.w3.org/2000/svg" width="20" height="19" viewBox="0 0 20 19">
    <path fill="#59C587" fill-rule="evenodd" d="M9.999 19C4.486 19 0 14.738 0 9.5 0 4.262 4.486 0 9.999 0 15.513 0 20 4.263 20 9.5c0 5.238-4.487 9.5-10.001 9.5zm5.688-10.609V6.187c0-1.153-.985-2.09-2.199-2.09H6.51c-1.212 0-2.197.937-2.197 2.09v6.629c0 1.15.985 2.087 2.197 2.087h6.978c1.214 0 2.2-.936 2.2-2.087V8.39zm-2.199 5.459H6.51c-.602 0-1.09-.463-1.09-1.034V8.39h1.698A2.823 2.823 0 0 0 6.89 9.5c0 1.63 1.394 2.956 3.109 2.956 1.717 0 3.111-1.327 3.111-2.956 0-.39-.084-.766-.23-1.108h1.698v4.425c0 .571-.488 1.034-1.09 1.034zm-1.046-8.502l1.678-.006h.251v1.831l-1.922.006-.007-1.831zm-2.443 6.053c-1.103 0-2.002-.852-2.002-1.902a1.83 1.83 0 0 1 .38-1.108A2.03 2.03 0 0 1 9.999 7.6c.669 0 1.26.314 1.624.792.236.313.378.695.378 1.108 0 1.05-.899 1.902-2.002 1.902z"/>
</svg>
