<svg xmlns="http://www.w3.org/2000/svg" width="19" height="18" viewBox="0 0 19 18">
    <path fill="#59C587" fill-rule="evenodd" d="M9.5 18C4.253 18 0 13.97 0 9s4.253-9 9.5-9S19 4.03 19 9s-4.253 9-9.5 9zm5.39-12.704c-.453.237-.954.41-1.487.504a2.479 2.479 0 0 0-1.707-.657c-1.292 0-2.34.93-2.34 2.078 0 .163.02.322.06.473-1.944-.087-3.668-.914-4.822-2.17-.201.306-.317.663-.317 1.044 0 .72.413 1.357 1.04 1.729a2.557 2.557 0 0 1-1.059-.26v.026c0 1.007.806 1.847 1.877 2.037a2.687 2.687 0 0 1-1.056.037c.297.824 1.161 1.425 2.185 1.442-.8.557-1.81.889-2.906.889-.189 0-.375-.01-.558-.029a7.248 7.248 0 0 0 3.587.933c4.303 0 6.657-3.166 6.657-5.91 0-.09-.003-.18-.007-.27a4.504 4.504 0 0 0 1.167-1.075c-.42.166-.87.277-1.343.328.483-.258.854-.665 1.028-1.15z"/>
</svg>
