<svg xmlns="http://www.w3.org/2000/svg" xmlns:xlink="http://www.w3.org/1999/xlink" width="68" height="68" viewBox="0 0 68 68">
    <defs>
        <rect id="b" width="60" height="60" rx="2"/>
        <filter id="a" width="123.3%" height="123.3%" x="-11.7%" y="-8.3%" filterUnits="objectBoundingBox">
            <feOffset dy="2" in="SourceAlpha" result="shadowOffsetOuter1"/>
            <feGaussianBlur in="shadowOffsetOuter1" result="shadowBlurOuter1" stdDeviation="2"/>
            <feComposite in="shadowBlurOuter1" in2="SourceAlpha" operator="out" result="shadowBlurOuter1"/>
            <feColorMatrix in="shadowBlurOuter1" values="0 0 0 0 0.377598435 0 0 0 0 0.353282452 0 0 0 0 0.565731645 0 0 0 0.341032609 0"/>
        </filter>
    </defs>
    <g fill="none" fill-rule="evenodd">
        <g transform="translate(4 2)">
            <use fill="#000" filter="url(#a)" xlink:href="#b"/>
            <use fill="#FFF" xlink:href="#b"/>
            <rect width="59" height="59" x=".5" y=".5" stroke="#645494" rx="2"/>
        </g>
        <g fill="#645494" fill-rule="nonzero">
            <path d="M32.8 25.714c-1.323 0-2.4 1.042-2.4 2.323v1.64c0 1.28 1.077 2.323 2.4 2.323s2.4-1.042 2.4-2.323v-1.64c0-1.28-1.077-2.323-2.4-2.323zm0 5.466c-.81 0-1.476-.602-1.546-1.368.418.342.957.548 1.546.548.589 0 1.128-.206 1.546-.548-.07.766-.737 1.368-1.546 1.368zm0-1.64c-.856 0-1.553-.674-1.553-1.503 0-.829.697-1.503 1.553-1.503s1.553.674 1.553 1.503c0 .83-.697 1.503-1.553 1.503z"/>
            <path d="M33.2 27.286c-.22 0-.4.15-.4.336v.898c0 .186.18.337.4.337.22 0 .4-.15.4-.337v-.898c0-.186-.18-.336-.4-.336zM40.4 21c-1.985 0-3.6 1.586-3.6 3.536v1.571c0 1.95 1.615 3.536 3.6 3.536 1.983 0 3.596-1.583 3.6-3.53v-1.577C44 22.586 42.385 21 40.4 21zm0 7.857a2.798 2.798 0 0 1-2.684-1.968 3.62 3.62 0 0 0 2.684 1.183 3.62 3.62 0 0 0 2.684-1.183 2.798 2.798 0 0 1-2.684 1.968zm0-1.571c-1.544 0-2.8-1.234-2.8-2.75 0-1.517 1.256-2.75 2.8-2.75 1.544 0 2.8 1.233 2.8 2.75 0 1.516-1.256 2.75-2.8 2.75z"/>
            <path d="M40.4 23.357c-.22 0-.4.192-.4.429v2.285c0 .237.179.429.4.429.22 0 .4-.192.4-.428v-2.286c0-.237-.179-.429-.4-.429zM47.764 34.554c-.563-.933-1.812-1.257-2.79-.726-.177.084-2.447 1.152-4.318 1.906a.387.387 0 0 0-.219.515c.088.2.329.294.538.21 1.96-.79 4.35-1.92 4.374-1.931a.45.45 0 0 0 .023-.012c.588-.325 1.342-.131 1.681.431.393.651-.22 1.366-.52 1.658-2.037 1.573-7.674 5.61-9.568 5.61-2.1 0-7.993-1.197-9.434-1.496v-6.418c2.857-.402 4.371.102 7.543 1.16.965.323 2.059.688 3.387 1.095.198.082.748.379.539 1.048-.128.407-.538.796-1.14.688-.807-.145-5.56-.762-5.762-.789a.407.407 0 0 0-.462.337.396.396 0 0 0 .352.442c.049.007 4.934.641 5.721.783.123.022.241.032.356.032.871 0 1.512-.599 1.72-1.267.22-.704-.008-1.594-1.013-2.002a.108.108 0 0 0-.004-.002l-.004-.001-.017-.006-.017-.006c-1.327-.406-2.42-.771-3.386-1.093-3.163-1.056-4.83-1.612-7.813-1.213v-.328a.402.402 0 0 0-.41-.393h-1.23v-.393a.402.402 0 0 0-.41-.393h-5.07a.402.402 0 0 0-.411.393v8.642c0 .217.184.393.41.393.227 0 .41-.176.41-.393v-8.25h4.25v9.43h-.82v-.394a.402.402 0 0 0-.41-.393.402.402 0 0 0-.41.393v.393h-3.02a.402.402 0 0 0-.41.393c0 .217.184.393.41.393h5.07c.227 0 .41-.176.41-.393v-.413h1.23c.227 0 .411-.176.411-.393v-.277c1.717.355 7.303 1.476 9.434 1.476 1.12 0 3.109-.957 6.077-2.925a77.232 77.232 0 0 0 4.023-2.872.407.407 0 0 0 .033-.028c.891-.855 1.14-1.835.666-2.62zM26.71 41.03v.38h-.82v-7.837h.82v7.457z"/>
        </g>
    </g>
</svg>
