<svg xmlns="http://www.w3.org/2000/svg" width="242" height="79" viewBox="0 0 242 79">
    <path fill="#59C587" fill-rule="evenodd" d="M17.2 32.3c3.133-4.733 6.9-7.1 11.3-7.1 6.8 0 11.867 2.9 15.2 8.7.733-1 1.617-2.05 2.65-3.15s2.683-2.3 4.95-3.6c2.267-1.3 4.6-1.95 7-1.95 5.333 0 9.8 2.05 13.4 6.15 3.6 4.1 5.4 10.883 5.4 20.35v17.5c0 1.533-.05 2.683-.15 3.45-.1.767-.417 1.65-.95 2.65-.867 1.8-3.433 2.7-7.7 2.7-4.2 0-6.767-.933-7.7-2.8-.467-1-.75-1.883-.85-2.65-.1-.767-.15-1.917-.15-3.45V51.6c0-5.8-2.067-8.7-6.2-8.7-2.333 0-3.917.767-4.75 2.3-.833 1.533-1.25 3.7-1.25 6.5v17.5c0 1.6-.05 2.767-.15 3.5-.1.733-.417 1.6-.95 2.6-.933 1.8-3.533 2.7-7.8 2.7-4.2 0-6.767-.933-7.7-2.8-.467-1-.75-1.883-.85-2.65-.1-.767-.15-1.917-.15-3.45V51.6c0-5.8-2.067-8.7-6.2-8.7-4 0-6 2.9-6 8.7v17.7c0 1.533-.05 2.683-.15 3.45-.1.767-.417 1.65-.95 2.65-1 1.733-3.6 2.6-7.8 2.6-4.2 0-6.767-.9-7.7-2.7-.467-1-.75-1.867-.85-2.6-.1-.733-.15-1.9-.15-3.5V34c0-1.533.05-2.683.15-3.45.1-.767.417-1.617.95-2.55 1-1.8 3.367-2.7 7.1-2.7 3.733 0 6.167.6 7.3 1.8 1.133 1.2 1.7 2.933 1.7 5.2zm72.9 19.4c0-8 2.8-14.6 8.4-19.8 5.6-5.2 12-7.8 19.2-7.8 7.2 0 13.567 2.583 19.1 7.75 5.533 5.167 8.3 11.75 8.3 19.75 0 5.533-1.433 10.45-4.3 14.75-2.867 4.3-6.35 7.467-10.45 9.5-4.1 2.033-8.35 3.05-12.75 3.05s-8.667-1.083-12.8-3.25c-4.133-2.167-7.617-5.367-10.45-9.6-2.833-4.233-4.25-9.017-4.25-14.35zm20.9 7.2c2.133 1.6 4.3 2.4 6.5 2.4s4.4-.833 6.6-2.5c2.2-1.667 3.3-4.133 3.3-7.4 0-3.267-1.033-5.7-3.1-7.3-2.067-1.6-4.3-2.4-6.7-2.4-2.4 0-4.633.833-6.7 2.5s-3.1 4.117-3.1 7.35c0 3.233 1.067 5.683 3.2 7.35zm81.3-28c.4-3.733 3.033-5.6 7.9-5.6 2.6 0 4.533.2 5.8.6 1.267.4 2.15 1.1 2.65 2.1s.8 1.883.9 2.65c.1.767.15 1.917.15 3.45v35c0 1.533-.05 2.683-.15 3.45-.1.767-.383 1.65-.85 2.65-.933 1.733-3.217 2.6-6.85 2.6-3.633 0-6.067-.45-7.3-1.35-1.233-.9-1.95-2.217-2.15-3.95-2.467 3.533-6.583 5.3-12.35 5.3-5.767 0-11.117-2.633-16.05-7.9s-7.4-11.383-7.4-18.35c0-6.967 2.483-13.067 7.45-18.3 4.967-5.233 10.417-7.85 16.35-7.85 2.267 0 4.333.4 6.2 1.2 1.867.8 3.167 1.55 3.9 2.25.733.7 1.333 1.383 1.8 2.05zm-18.2 20.8c0 2.2.867 4.183 2.6 5.95 1.733 1.767 3.833 2.65 6.3 2.65 2.467 0 4.517-.9 6.15-2.7 1.633-1.8 2.45-3.783 2.45-5.95 0-2.167-.783-4.183-2.35-6.05-1.567-1.867-3.667-2.8-6.3-2.8s-4.767.933-6.4 2.8c-1.633 1.867-2.45 3.9-2.45 6.1zm50.1-17.6c0-1.533.05-2.683.15-3.45.1-.767.383-1.65.85-2.65.933-1.733 3.533-2.6 7.8-2.6 3.2 0 5.467.567 6.8 1.7 1.133.933 1.733 2.367 1.8 4.3.067.667.1 1.633.1 2.9v35c0 1.533-.05 2.683-.15 3.45-.1.767-.417 1.65-.95 2.65-.867 1.733-3.433 2.6-7.7 2.6-4.2 0-6.767-.9-7.7-2.7-.467-1-.75-1.867-.85-2.6-.1-.733-.15-1.9-.15-3.5V34.1zm16.4-18.5c-.467.933-1.333 1.6-2.6 2-1.267.4-2.95.6-5.05.6-2.1 0-3.783-.2-5.05-.6-1.267-.4-2.15-1.1-2.65-2.1s-.8-1.883-.9-2.65c-.1-.767-.15-1.917-.15-3.45 0-1.533.05-2.683.15-3.45.1-.767.383-1.617.85-2.55.933-1.8 3.533-2.7 7.8-2.7 4.2 0 6.733.9 7.6 2.7.533 1 .85 1.883.95 2.65.1.767.15 1.917.15 3.45 0 1.533-.05 2.683-.15 3.45-.1.767-.417 1.65-.95 2.65z"/>
</svg>
