<?xml version="1.0" encoding="UTF-8"?>
<svg width="108px" height="78px" viewBox="0 0 108 78" version="1.1" xmlns="http://www.w3.org/2000/svg" xmlns:xlink="http://www.w3.org/1999/xlink">
    <!-- Generator: Sketch 49.2 (51160) - http://www.bohemiancoding.com/sketch -->
    <title>Group 3</title>
    <desc>Created with Sketch.</desc>
    <defs></defs>
    <g id="Page-1" stroke="none" stroke-width="1" fill="none" fill-rule="evenodd">
        <g id="Desktop-Copy-3" transform="translate(-504.000000, -522.000000)">
            <g id="Group-3" transform="translate(504.000000, 522.000000)">
                <circle id="Oval-4-Copy" fill="#59C587" opacity="0.6" cx="32.5" cy="36.5" r="32.5"></circle>
                <g id="005-hand" transform="translate(8.000000, 0.000000)" fill="#645494">
                    <g id="Shape">
                        <path d="M45.7141849,16.7142857 C40.9878671,16.7142857 37.1428571,20.4090042 37.1428571,24.950538 L37.1428571,30.7641352 C37.1428571,35.3052815 40.9880688,39 45.7141849,39 C50.4405027,39 54.2857143,35.3054752 54.2857143,30.7641352 L54.2857143,24.950538 C54.2857143,20.4090042 50.4405027,16.7142857 45.7141849,16.7142857 Z M45.7141849,36.0932014 C42.8236729,36.0932014 40.4438799,33.9570803 40.191444,31.242273 C41.6842837,32.4540848 43.6114262,33.1865965 45.7141849,33.1865965 C47.8169437,33.1865965 49.7440861,32.4540848 51.2371274,31.2420792 C50.9846915,33.9570803 48.6048985,36.0932014 45.7141849,36.0932014 Z M45.7141849,30.2796042 C42.65592,30.2796042 40.1680554,27.8889154 40.1680554,24.950538 C40.1680554,22.0117731 42.6561216,19.6210843 45.7141849,19.6210843 C48.7724498,19.6210843 51.2605161,22.0117731 51.2605161,24.950538 C51.2605161,27.8889154 48.7724498,30.2796042 45.7141849,30.2796042 Z" fill-rule="nonzero"></path>
                        <path d="M47.1428571,22.2857143 C46.3539247,22.2857143 45.7142857,22.8201156 45.7142857,23.4796032 L45.7142857,26.6632539 C45.7142857,27.3225824 46.3539247,27.8571429 47.1428571,27.8571429 C47.9317896,27.8571429 48.5714286,27.3227415 48.5714286,26.6632539 L48.5714286,23.4796032 C48.5714286,22.8199565 47.9317896,22.2857143 47.1428571,22.2857143 Z" fill-rule="nonzero"></path>
                        <path d="M72.8574285,0 C65.7677525,0 60.0001904,5.62348285 60.0001904,12.5356805 L60.0001904,18.1034633 C60.0001904,18.1047629 60,18.1058769 60,18.1071766 C60,25.0193743 65.7677525,30.6428571 72.8570476,30.6428571 C79.9385354,30.6428571 85.7005752,25.0314426 85.7131432,18.1296423 C85.7131432,18.1222156 85.7142857,18.1149746 85.7142857,18.1075479 L85.7142857,12.5356805 C85.7142857,5.62348285 79.9467236,0 72.8574285,0 Z M72.8570476,27.8572948 C68.3300979,27.8572948 64.4983862,24.9081597 63.2707226,20.8777 C65.6270292,23.4493739 69.0508527,25.0719181 72.8574285,25.0719181 C76.6632426,25.0719181 80.0866852,23.4499309 82.442611,20.8789996 C81.214757,24.9087167 77.3834261,27.8572948 72.8570476,27.8572948 Z M72.8574285,22.28617 C67.3433207,22.28617 62.8573121,17.9120406 62.8573121,12.5358662 C62.8573121,7.15969182 67.3435111,2.78593371 72.8574285,2.78593371 C78.3713458,2.78593371 82.857164,7.15987749 82.857164,12.5358662 C82.857164,17.9120406 78.3713458,22.28617 72.8574285,22.28617 Z" fill-rule="nonzero"></path>
                        <path d="M72.8580945,8.35714286 C72.0693921,8.35714286 71.4302843,9.03703983 71.430094,9.87612625 L71.4285714,17.980409 C71.4285714,18.8192929 72.0676792,19.4997975 72.8561912,19.5 L72.8563815,19.5 C73.6448936,19.5 74.2840013,18.8199005 74.2841917,17.9810166 L74.2857142,9.87673385 C74.2859046,9.03764742 73.6466065,8.35734539 72.8580945,8.35714286 Z" fill-rule="nonzero"></path>
                        <path d="M99.156173,48.0558132 C97.1456277,44.7458906 92.6858655,43.5972696 89.1938761,45.4816765 C88.5591109,45.7791852 80.4532579,49.5669416 73.7727943,52.2398764 C73.0268964,52.5383136 72.6768967,53.3552551 72.9905683,54.0644845 C73.30424,54.7737138 74.1632237,55.1063218 74.9095122,54.808256 C81.9132177,52.0058808 90.4462189,48.0015857 90.5315703,47.9614722 C90.5595,47.9482867 90.5870391,47.9343584 90.6139922,47.9196872 C92.7134046,46.7688377 95.4071525,47.4546675 96.6188703,49.4499438 C98.0219942,51.7573999 95.8309803,54.2908659 94.7585202,55.3256462 C87.4841118,60.9053256 67.3540493,75.2135959 60.5880389,75.2135959 C53.0884354,75.2135959 32.0433345,70.9743767 26.8966588,69.9139683 L26.8966588,47.1571589 C37.1013384,45.7314575 42.5075842,47.5196663 53.836677,51.2736234 C57.2831587,52.4155588 61.1876478,53.7090341 65.9333473,55.1518209 C66.6407686,55.4448725 68.6034624,56.4952525 67.8554161,58.8695644 C67.4007289,60.3129083 65.9349098,61.6910678 63.7882317,61.3090608 C60.9036637,60.7942706 43.9278956,58.6049266 43.2066071,58.5120712 C42.4050452,58.4080732 41.6665692,58.9431058 41.5579756,59.7056342 C41.4493819,60.4681625 42.0112955,61.1699634 42.813248,61.2732186 C42.9890291,61.2958753 60.4358906,63.545761 63.2479978,64.0477372 C63.6845209,64.12555 64.1081534,64.1623207 64.5177234,64.1623207 C67.6284631,64.1623207 69.9161567,62.0394612 70.6630311,59.6692349 C71.4487727,57.1749538 70.6321717,54.0174997 67.0429167,52.57267 C67.0378386,52.5704415 67.0325652,52.568213 67.0272917,52.5661702 C67.0227995,52.5643131 67.0185027,52.5622702 67.0138152,52.5604131 C66.9940886,52.5526133 66.9739714,52.547042 66.9540496,52.539985 C66.9337371,52.5329279 66.9144012,52.5247567 66.8935028,52.5184425 C62.1530768,51.0786271 58.2474157,49.7844089 54.8013246,48.6426592 C43.5032865,44.8992876 37.5491896,42.9298251 26.8968541,44.3436411 L26.8968541,43.1788633 C26.8968541,42.4092779 26.2407999,41.7856612 25.4316209,41.7856612 L21.037093,41.7856612 L21.037093,40.393202 C21.037093,39.6236167 20.3810389,39 19.5718598,39 L1.46523324,39 C0.656054178,39 0,39.6236167 0,40.393202 L0,71.0338041 C0,71.8033895 0.656054178,72.4270062 1.46523324,72.4270062 C2.2744123,72.4270062 2.93046648,71.8033895 2.93046648,71.0338041 L2.93046648,41.7862184 L18.1066266,41.7862184 L18.1066266,75.2135959 L15.1779179,75.2135959 L15.1779179,73.8211367 C15.1779179,73.0515514 14.5218637,72.4279347 13.7126847,72.4279347 C12.9035056,72.4279347 12.2474514,73.0515514 12.2474514,73.8211367 L12.2474514,75.2135959 L1.46523324,75.2135959 C0.656054178,75.2135959 0,75.8372126 0,76.606798 C0,77.3763833 0.656054178,78 1.46523324,78 L19.5718598,78 C20.3810389,78 21.037093,77.3763833 21.037093,76.606798 L21.037093,75.143583 L25.4314256,75.143583 C26.2406046,75.143583 26.8966588,74.5199663 26.8966588,73.7503809 L26.8966588,72.7659283 C33.0271228,74.0254186 52.9794511,78 60.5880389,78 C64.5923327,78 71.6927178,74.6076218 82.2944674,67.6297261 C89.9403599,62.5971505 96.5958235,57.4962334 96.6620343,57.4453487 C96.7026593,57.4141493 96.7413312,57.380907 96.7780499,57.3459934 C99.9614458,54.3153797 100.850312,50.8422173 99.156173,48.0558132 Z M23.965997,71.0124474 C23.965997,71.0137474 23.965997,71.0150473 23.965997,71.0161616 L23.965997,72.3575503 L21.037093,72.3575503 L21.037093,44.5718796 L23.9661923,44.5718796 L23.9661923,71.0124474 L23.965997,71.0124474 Z" fill-rule="nonzero"></path>
                    </g>
                </g>
            </g>
        </g>
    </g>
</svg>