<svg xmlns="http://www.w3.org/2000/svg" xmlns:xlink="http://www.w3.org/1999/xlink" width="68" height="68" viewBox="0 0 68 68">
    <defs>
        <rect id="b" width="60" height="60" rx="2"/>
        <filter id="a" width="123.3%" height="123.3%" x="-11.7%" y="-8.3%" filterUnits="objectBoundingBox">
            <feOffset dy="2" in="SourceAlpha" result="shadowOffsetOuter1"/>
            <feGaussianBlur in="shadowOffsetOuter1" result="shadowBlurOuter1" stdDeviation="2"/>
            <feComposite in="shadowBlurOuter1" in2="SourceAlpha" operator="out" result="shadowBlurOuter1"/>
            <feColorMatrix in="shadowBlurOuter1" values="0 0 0 0 0.925490196 0 0 0 0 0.505882353 0 0 0 0 0.321568627 0 0 0 0.34 0"/>
        </filter>
    </defs>
    <g fill="none" fill-rule="evenodd">
        <g transform="translate(4 2)">
            <use fill="#000" filter="url(#a)" xlink:href="#b"/>
            <use fill="#FFF" xlink:href="#b"/>
            <rect width="59" height="59" x=".5" y=".5" stroke="#EA7745" rx="2"/>
        </g>
        <g fill="#E86D37" fill-rule="nonzero">
            <path d="M44.463 37h-6.622-.002-.001c-.296 0-.537.222-.537.496 0 1.937-1.706 3.513-3.802 3.513-2.097 0-3.803-1.576-3.803-3.513 0-.274-.24-.496-.537-.496h-6.622c-.297 0-.537.222-.537.496 0 .273.24.495.537.495h6.115C28.92 40.243 30.992 42 33.5 42c2.507 0 4.578-1.757 4.846-4.009h6.118c.297 0 .537-.222.537-.495 0-.274-.24-.496-.537-.496z"/>
            <path d="M31.897 37.4l-.297-.297a.351.351 0 0 0-.497.497l.297.297a.35.35 0 0 0 .497 0 .351.351 0 0 0 0-.497zM31.897 34.4l-.297-.297a.351.351 0 0 0-.497.497l.297.297a.35.35 0 0 0 .497 0 .351.351 0 0 0 0-.497zM35.897 35.103a.351.351 0 0 0-.497 0l-.297.297a.351.351 0 0 0 .497.497l.297-.297a.351.351 0 0 0 0-.497zM46.749 27.51l-3.377-4.9a1.399 1.399 0 0 0-1.96-.356l-.004.002-1.462 1.029a1.43 1.43 0 0 0-.436 1.835l-1.134.797-5.08-.912c-.447-.08-.9.02-1.272.282l-6.251 4.397a1.833 1.833 0 0 0-.448 2.536 1.794 1.794 0 0 0 2.516.452l3.152-2.216a1.94 1.94 0 0 0 1.554 1.554l5.257.944a2.867 2.867 0 0 0 2.171-.482l3.1-2.18a1.395 1.395 0 0 0 1.057.477c.285 0 .564-.087.803-.256l1.46-1.027.003-.001.004-.003.005-.004.004-.003a1.43 1.43 0 0 0 .338-1.966zm-7.419 4.03c-.389.274-.86.38-1.328.295l-5.258-.944a.8.8 0 0 1-.325-1.439l.007-.004.003-.002a.787.787 0 0 1 .594-.132l3.319.596a.568.568 0 1 0 .198-1.119l-3.32-.596a1.903 1.903 0 0 0-1.428.315l-.026.016-4.57 3.214a.675.675 0 0 1-.947-.17.69.69 0 0 1 .169-.954l6.25-4.397a.568.568 0 0 1 .43-.095l5.31.953a.56.56 0 0 0 .422-.093l1.315-.925 2.279 3.306-3.094 2.176zm6.424-2.988l-1.464 1.03a.278.278 0 0 1-.393-.071l-3.149-4.57-.003-.003-.225-.326a.286.286 0 0 1 .07-.395l1.462-1.028.002-.001a.279.279 0 0 1 .392.07l3.377 4.9a.286.286 0 0 1-.07.394z"/>
        </g>
    </g>
</svg>
