<?xml version="1.0" encoding="UTF-8"?>
<svg width="94px" height="83px" viewBox="0 0 94 83" version="1.1" xmlns="http://www.w3.org/2000/svg" xmlns:xlink="http://www.w3.org/1999/xlink">
    <!-- Generator: Sketch 49.2 (51160) - http://www.bohemiancoding.com/sketch -->
    <title>Group 2</title>
    <desc>Created with Sketch.</desc>
    <defs></defs>
    <g id="Page-1" stroke="none" stroke-width="1" fill="none" fill-rule="evenodd">
        <g id="Desktop-Copy-3" transform="translate(-323.000000, -522.000000)">
            <g id="Group-2" transform="translate(323.000000, 522.000000)">
                <circle id="Oval-4" fill="#59C587" opacity="0.604846014" cx="32.5" cy="36.5" r="32.5"></circle>
                <g id="credit-card" transform="translate(11.000000, 0.000000)" fill="#645494" fill-rule="nonzero">
                    <path d="M80.7967912,28.4830862 L54.5146403,2.20008516 C53.0958587,0.78140229 51.2038797,0 49.1869144,0 C47.1701111,0 45.27797,0.781078056 43.8591884,2.19976093 L2.19998687,43.8609859 C0.781367378,45.2798309 0,47.1717323 0,49.1887878 C0,51.2058432 0.781367378,53.0980689 2.19998687,54.5165896 L5.44087828,57.7576258 C5.4412025,57.7577879 5.44136461,57.7581122 5.44168883,57.7584364 C5.44201305,57.7587606 5.44233727,57.7590849 5.44266148,57.7594091 L27.2236824,79.5414032 L24.2077989,79.5414032 C23.2529744,79.5414032 22.4787399,80.3155103 22.4787399,81.2705395 C22.4787399,82.2254066 23.2529744,82.9996758 24.2077989,82.9996758 L33.802893,82.9996758 C33.8051625,82.9996758 33.80727,82.9998379 33.8095395,82.9998379 C33.811809,82.9998379 33.8139165,82.9996758 33.816186,82.9996758 L58.7896276,83 C59.7444521,83 60.5186866,82.2257308 60.5186866,81.2708637 C60.5186866,80.3158345 59.7444521,79.5417275 58.7896276,79.5417275 L40.396045,79.5414032 L80.7969533,39.1386898 C83.7343759,36.2008118 83.7343759,31.42064 80.7967912,28.4830862 Z M78.3515328,36.6933222 L36.692007,78.3547093 C35.9279853,79.118603 34.906696,79.5397821 33.8158618,79.5414032 L33.8027309,79.5414032 C32.7122209,79.5396199 31.6912558,79.118603 30.9275583,78.3547093 L9.10973855,56.5357526 L49.1175315,16.5258478 C49.7927172,15.850632 49.7927172,14.7556961 49.1175315,14.0804802 C48.4421837,13.4052643 47.3476209,13.4052643 46.672111,14.0806423 L6.66431803,54.090547 L4.64508317,52.0712219 C3.87976462,51.3058692 3.45828014,50.2822646 3.45828014,49.1889499 C3.45828014,48.0956352 3.87976462,47.0718685 4.64524527,46.3063536 L46.3044469,4.64529071 C47.0699275,3.87993797 48.0936485,3.45843466 49.1869144,3.45843466 C50.2801802,3.45843466 51.3039012,3.87993797 52.0693819,4.64545282 L61.4235814,13.9999082 L21.4153021,54.0102993 C20.7401164,54.6853531 20.7401164,55.780289 21.4153021,56.4558291 C21.752976,56.793356 22.1955347,56.9621194 22.6379313,56.9621194 C23.0803279,56.9621194 23.5228866,56.7931938 23.8605605,56.455667 L63.8688398,16.445438 L78.3515328,30.9282917 C79.9406914,32.5176834 79.9405293,35.1039305 78.3515328,36.6933222 Z" id="Shape"></path>
                    <path d="M42.49555,49.5044144 C41.822923,48.8317811 40.7325084,48.8319426 40.0593969,49.5044144 L26.5044702,63.0593084 C25.8318433,63.7319418 25.8318433,64.8225283 26.5044702,65.4954846 C26.8408644,65.831882 27.281746,66 27.722466,66 C28.163186,66 28.6040675,65.8317205 28.9404618,65.4954846 L42.4953885,51.9405906 C43.1681769,51.2676343 43.1681769,50.1770478 42.49555,49.5044144 Z" id="Shape"></path>
                    <path d="M37.060975,62.5043267 L31.5042237,68.0608786 C30.8319254,68.7331528 30.8319254,69.8233184 31.5042237,70.495754 C31.8404536,70.8318104 32.2811197,71 32.7216244,71 C33.1624519,71 33.6027952,70.8318104 33.939025,70.495754 L39.4957763,64.9392021 C40.1680746,64.2669279 40.1680746,63.1767623 39.4957763,62.5043267 C38.823478,61.8318911 37.7337575,61.8318911 37.060975,62.5043267 Z" id="Shape"></path>
                    <path d="M42.1834083,58.4831527 L41.4833841,59.1829951 C40.8388978,59.8273018 40.8388978,60.8719605 41.4832294,61.5165766 C41.8053179,61.8388073 42.2278076,62 42.6499879,62 C43.0721682,62 43.4945033,61.8388073 43.8165917,61.5165766 L44.5166159,60.8167342 C45.1611022,60.1724275 45.1611022,59.1277688 44.5167706,58.4833074 C43.8727484,57.8390007 42.8277399,57.838846 42.1834083,58.4831527 Z" id="Shape"></path>
                    <path d="M66.4946579,26.5166145 C66.1639248,26.1858754 65.7152853,26 65.2474633,26 C64.7796413,26 64.3311672,26.1858754 64.0002687,26.5166145 L56.5166051,34.0002481 C56.185872,34.3311525 56,34.7796347 56,35.2474652 C56,35.7152956 56.185872,36.1639432 56.5166051,36.4946823 L61.5057142,41.4833855 C61.8501727,41.8278503 62.3016234,42 62.7529088,42 C63.2045248,42 63.6556448,41.8276849 64.0001034,41.4833855 L71.4834362,34.0000827 C72.1721879,33.3113185 72.1721879,32.1944126 71.4834362,31.5056484 L66.4946579,26.5166145 Z M62.7527434,37.7418995 L60.2581889,35.2474652 L65.2472979,30.2584313 L67.7416871,32.7530309 L62.7527434,37.7418995 Z" id="Shape"></path>
                    <path d="M51.6500687,13 C52.0725543,13 52.4948852,12.8388198 52.8169706,12.5164593 L53.516988,11.816207 C54.1611587,11.1717954 54.161004,10.1270629 53.5165239,9.48296067 C52.8721985,8.83885846 51.8272001,8.83901315 51.1830294,9.48342472 L50.483012,10.183677 C49.8388413,10.8280886 49.838996,11.8728211 50.4834761,12.5169233 C50.8057162,12.8391291 51.2277377,13 51.6500687,13 Z" id="Shape"></path>
                    <path d="M17.1832615,58.4833414 L16.4832441,59.1833317 C15.8389186,59.8274775 15.8389186,60.8722808 16.4832441,61.5168907 C16.8054841,61.8389636 17.2278151,62 17.6499913,62 C18.0721675,62 18.4944985,61.8389636 18.8167385,61.5168907 L19.5167559,60.8169003 C20.1610814,60.1724451 20.1610814,59.1276419 19.5167559,58.4833414 C18.8722758,57.8388862 17.8277416,57.8388862 17.1832615,58.4833414 Z" id="Shape"></path>
                </g>
            </g>
        </g>
    </g>
</svg>