<svg xmlns="http://www.w3.org/2000/svg" xmlns:xlink="http://www.w3.org/1999/xlink" width="68" height="68" viewBox="0 0 68 68">
    <defs>
        <rect id="b" width="60" height="60" rx="2"/>
        <filter id="a" width="123.3%" height="123.3%" x="-11.7%" y="-8.3%" filterUnits="objectBoundingBox">
            <feOffset dy="2" in="SourceAlpha" result="shadowOffsetOuter1"/>
            <feGaussianBlur in="shadowOffsetOuter1" result="shadowBlurOuter1" stdDeviation="2"/>
            <feComposite in="shadowBlurOuter1" in2="SourceAlpha" operator="out" result="shadowBlurOuter1"/>
            <feColorMatrix in="shadowBlurOuter1" values="0 0 0 0 0.431372549 0 0 0 0 0.768627451 0 0 0 0 0.576470588 0 0 0 0.34 0"/>
        </filter>
    </defs>
    <g fill="none" fill-rule="evenodd">
        <g transform="translate(4 2)">
            <use fill="#000" filter="url(#a)" xlink:href="#b"/>
            <use fill="#FFF" xlink:href="#b"/>
            <rect width="59" height="59" x=".5" y=".5" stroke="#59C587" rx="2"/>
        </g>
        <g fill="#59C587" fill-rule="nonzero">
            <path d="M44.4 26.966v-.323l-2.34-2.808-3.727-1.398-3.726 1.398-2.34 2.808V29.4H27.5v-1.733h.055a1.473 1.473 0 0 0 1.449-1.734l-.49-2.69a1.473 1.473 0 0 0-2.896 0l-.488 2.69a1.473 1.473 0 0 0 1.448 1.734h.055V29.4H23.6v-3.077a2.17 2.17 0 0 0 1.733-2.123v-3.033a2.167 2.167 0 0 0-4.333 0V24.2a2.17 2.17 0 0 0 1.733 2.123V29.4H21V45h26V28.266l-2.6-1.3zm-11.267-.01l1.994-2.39 3.206-1.203 3.207 1.202 1.993 2.392V29.4H40.5v-2.6h-4.333v2.6h-3.034v-2.443zm6.5.71V29.4h-.866v-1.733h.866zm-1.733 0V29.4h-.867v-1.733h.867zM26.578 26.8a.607.607 0 0 1-.595-.713l.49-2.69a.607.607 0 0 1 1.19 0l.487 2.69a.607.607 0 0 1-.595.713H27.5v-.867h-.867v.867h-.055zm-4.711-2.6v-3.033a1.3 1.3 0 1 1 2.6 0V24.2a1.3 1.3 0 0 1-.867 1.22v-1.653h-.867v1.653a1.3 1.3 0 0 1-.866-1.22zm0 6.067h5.887l-5.887 5.887v-5.887zm0 7.112l7.112-7.112h.326l-7.438 11.528V37.38zm0 6.754v-.739l8.47-13.127h.433l-5.301 13.866h-3.602zm4.53 0l5.301-13.866h.485l-2.447 13.866h-3.34zm7.17 0h-2.95l2.447-13.866h.503v13.866zm.866 0V30.267h.503l2.447 13.866h-2.95zm3.83 0l-2.446-13.866h.485l5.302 13.866h-3.34zm7.87 0h-3.602L37.23 30.267h.433l8.47 13.127v.74zm0-2.338l-7.438-11.528h.326l7.112 7.112v4.416zm0-5.641l-5.887-5.887h5.887v5.887zm0-6.754H44.4v-1.466l1.733.867v.599z"/>
            <path d="M38 25h1v1h-1zM32 19a2 2 0 1 0 0 4 2 2 0 0 0 0-4zm0 3.111a1.111 1.111 0 1 1 0-2.222 1.111 1.111 0 0 1 0 2.222z"/>
        </g>
    </g>
</svg>
