<svg xmlns="http://www.w3.org/2000/svg" xmlns:xlink="http://www.w3.org/1999/xlink" width="68" height="68" viewBox="0 0 68 68">
    <defs>
        <rect id="b" width="60" height="60" rx="2"/>
        <filter id="a" width="123.3%" height="123.3%" x="-11.7%" y="-8.3%" filterUnits="objectBoundingBox">
            <feOffset dy="2" in="SourceAlpha" result="shadowOffsetOuter1"/>
            <feGaussianBlur in="shadowOffsetOuter1" result="shadowBlurOuter1" stdDeviation="2"/>
            <feComposite in="shadowBlurOuter1" in2="SourceAlpha" operator="out" result="shadowBlurOuter1"/>
            <feColorMatrix in="shadowBlurOuter1" values="0 0 0 0 0.97254902 0 0 0 0 0.180392157 0 0 0 0 0.274509804 0 0 0 0.34 0"/>
        </filter>
    </defs>
    <g fill="none" fill-rule="evenodd">
        <g transform="translate(4 2)">
            <use fill="#000" filter="url(#a)" xlink:href="#b"/>
            <use fill="#FFF" xlink:href="#b"/>
            <rect width="59" height="59" x=".5" y=".5" stroke="#F82E46" rx="2"/>
        </g>
        <g fill="#F82E46" fill-rule="nonzero">
            <path d="M36.962 20h-6.125c-.241 0-.437.18-.437.4 0 .22.196.4.438.4h6.124c.242 0 .438-.18.438-.4 0-.22-.196-.4-.438-.4z"/>
            <path d="M34.8 20c-.221 0-.4.192-.4.429v2.142c0 .237.179.429.4.429.221 0 .4-.192.4-.429V20.43c0-.237-.179-.429-.4-.429z"/>
            <path d="M34.767 22.2h-1.734c-.24 0-.433.18-.433.4 0 .22.194.4.433.4h1.734c.24 0 .433-.18.433-.4 0-.22-.194-.4-.433-.4z"/>
            <path d="M33 20c-.221 0-.4.192-.4.429v2.142c0 .237.179.429.4.429.221 0 .4-.192.4-.429V20.43c0-.237-.179-.429-.4-.429zM30.957 28.8h-5.314c-.245 0-.443.18-.443.4 0 .22.198.4.443.4h5.314c.245 0 .443-.18.443-.4 0-.22-.198-.4-.443-.4zM36.8 27.8c-.221 0-.4.193-.4.432v7.336c0 .24.179.432.4.432.221 0 .4-.193.4-.432v-7.336c0-.239-.179-.432-.4-.432zM46.558 38.8h-1.316c-.244 0-.442.179-.442.4 0 .221.198.4.442.4h1.316c.244 0 .442-.179.442-.4 0-.221-.198-.4-.442-.4z"/>
            <path d="M46.6 38.8c-.221 0-.4.194-.4.433v1.734c0 .24.179.433.4.433.221 0 .4-.194.4-.433v-1.734c0-.24-.179-.433-.4-.433zM23.356 40.6h-.002l-3.11.008c-.247.001-.445.178-.444.397 0 .219.2.395.444.395h.002l3.11-.008c.247-.001.445-.178.444-.397 0-.219-.2-.395-.444-.395zM46.133 36.6h-.466c-.258 0-.467.179-.467.4 0 .221.209.4.467.4h.466c.258 0 .467-.179.467-.4 0-.221-.209-.4-.467-.4z"/>
            <path d="M46 33.6c-.221 0-.4.198-.4.443v5.314c0 .245.179.443.4.443.221 0 .4-.198.4-.443v-5.314c0-.245-.179-.443-.4-.443zM43.365 27.8h-6.53c-.24 0-.435.18-.435.4 0 .22.195.4.435.4h6.53c.24 0 .435-.18.435-.4 0-.22-.195-.4-.435-.4z"/>
            <path d="M46.559 33.776l-2.7-5.72a.454.454 0 0 0-.597-.216.436.436 0 0 0-.22.584l2.7 5.72a.451.451 0 0 0 .596.216.436.436 0 0 0 .22-.584zM20.2 38.8c-.221 0-.4.192-.4.429v1.742c0 .237.179.429.4.429.221 0 .4-.192.4-.429V39.23c0-.237-.179-.429-.4-.429zM19.4 33c-.221 0-.4.197-.4.44v5.72c0 .243.179.44.4.44.221 0 .4-.197.4-.44v-5.72c0-.243-.179-.44-.4-.44z"/>
            <path d="M36.962 33H19.438c-.242 0-.438.179-.438.4 0 .221.196.4.438.4h17.524c.242 0 .438-.179.438-.4 0-.221-.196-.4-.438-.4zM21.571 38.8H19.43c-.237 0-.429.179-.429.4 0 .221.192.4.429.4h2.142c.237 0 .429-.179.429-.4 0-.221-.192-.4-.429-.4zM26.1 37.8a3.104 3.104 0 0 0-3.1 3.1c0 1.709 1.391 3.1 3.1 3.1s3.1-1.391 3.1-3.1-1.391-3.1-3.1-3.1zm0 5.314a2.217 2.217 0 0 1-2.214-2.214c0-1.221.993-2.214 2.214-2.214s2.214.993 2.214 2.214a2.217 2.217 0 0 1-2.214 2.214z"/>
            <path d="M25.9 39.6c-.717 0-1.3.583-1.3 1.3 0 .717.583 1.3 1.3 1.3.717 0 1.3-.583 1.3-1.3 0-.717-.583-1.3-1.3-1.3zm0 1.733a.433.433 0 1 1 0-.867.433.433 0 0 1 0 .867zM40.5 39.6c-.717 0-1.3.583-1.3 1.3 0 .717.583 1.3 1.3 1.3.717 0 1.3-.583 1.3-1.3 0-.717-.583-1.3-1.3-1.3zm0 1.733a.433.433 0 1 1 0-.867.433.433 0 0 1 0 .867z"/>
            <path d="M40.5 37.8a3.104 3.104 0 0 0-3.1 3.1c0 1.709 1.391 3.1 3.1 3.1s3.1-1.391 3.1-3.1-1.391-3.1-3.1-3.1zm0 5.314a2.217 2.217 0 0 1-2.214-2.214c0-1.221.993-2.214 2.214-2.214s2.214.993 2.214 2.214a2.217 2.217 0 0 1-2.214 2.214z"/>
            <path d="M37.766 40.6h-9.132c-.24 0-.434.179-.434.4 0 .221.194.4.434.4h9.132c.24 0 .434-.179.434-.4 0-.221-.194-.4-.434-.4zM46.56 40.6h-3.52c-.243 0-.44.179-.44.4 0 .221.197.4.44.4h3.52c.243 0 .44-.179.44-.4 0-.221-.197-.4-.44-.4zM46.157 33.6h-5.314c-.245 0-.443.179-.443.4 0 .221.198.4.443.4h5.314c.245 0 .443-.179.443-.4 0-.221-.198-.4-.443-.4z"/>
            <path d="M40.767 33.533c-.717 0-1.3-.583-1.3-1.3a.433.433 0 1 0-.867 0 2.17 2.17 0 0 0 2.167 2.167.433.433 0 1 0 0-.867z"/>
            <path d="M39 27.8c-.221 0-.4.195-.4.436v3.928c0 .24.179.436.4.436.221 0 .4-.195.4-.436v-3.928c0-.24-.179-.436-.4-.436zM36.8 20c-.221 0-.4.196-.4.438v13.125c0 .241.179.437.4.437.221 0 .4-.196.4-.438V20.438c0-.242-.179-.438-.4-.438zM30.8 20c-.221 0-.4.196-.4.438v13.125c0 .241.179.437.4.437.221 0 .4-.196.4-.438V20.438c0-.242-.179-.438-.4-.438zM25.6 23.4c-.221 0-.4.194-.4.433v9.534c0 .24.179.433.4.433.221 0 .4-.194.4-.433v-9.534c0-.239-.179-.433-.4-.433zM28.2 28.8c-.221 0-.4.197-.4.44v1.32c0 .243.179.44.4.44.221 0 .4-.197.4-.44v-1.32c0-.243-.179-.44-.4-.44z"/>
            <path d="M30.957 23.4h-5.314c-.245 0-.443.18-.443.4 0 .22.198.4.443.4h5.314c.245 0 .443-.18.443-.4 0-.22-.198-.4-.443-.4z"/>
            <path d="M28.2 23.4c-.221 0-.4.202-.4.45v.9c0 .248.179.45.4.45.221 0 .4-.202.4-.45v-.9c0-.248-.179-.45-.4-.45zM20.2 26.6c-.221 0-.4.195-.4.435v6.53c0 .24.179.435.4.435.221 0 .4-.195.4-.435v-6.53c0-.24-.179-.435-.4-.435z"/>
            <path d="M25.557 26.6h-5.314c-.245 0-.443.18-.443.4 0 .22.198.4.443.4h5.314c.245 0 .443-.18.443-.4 0-.22-.198-.4-.443-.4z"/>
            <path d="M22 26.6c-.221 0-.4.197-.4.44v1.32c0 .243.179.44.4.44.221 0 .4-.197.4-.44v-1.32c0-.243-.179-.44-.4-.44z"/>
            <path d="M23.767 27.8h-1.734c-.24 0-.433.18-.433.4 0 .22.194.4.433.4h1.734c.24 0 .433-.18.433-.4 0-.22-.194-.4-.433-.4z"/>
            <path d="M23.8 26.6c-.221 0-.4.197-.4.44v1.32c0 .243.179.44.4.44.221 0 .4-.197.4-.44v-1.32c0-.243-.179-.44-.4-.44z"/>
        </g>
    </g>
</svg>
